<svg width="378" height="122" viewBox="0 0 378 122" fill="none" xmlns="http://www.w3.org/2000/svg">
<path fill-rule="evenodd" clip-rule="evenodd" d="M68.7298 11.1064C68.9837 12.2455 68.8424 12.4727 68.0783 12.1573C67.5418 11.9362 66.922 11.4518 66.7008 11.081C66.4398 10.6434 65.9862 10.6988 65.4038 11.24C64.9115 11.6983 64.1533 12.019 63.7194 11.9529C62.0868 11.705 61.4878 12.0217 61.8097 12.9618C62.3288 14.4777 61.3913 15.7365 60.7302 14.4122C60.3524 13.6553 59.7372 13.4461 58.7263 13.7308C56.7403 14.2893 56.8756 13.1027 58.9069 12.146C60.3947 11.4451 60.4084 11.4097 59.056 11.7618C57.2434 12.2335 55.4797 13.8811 55.4797 15.1017C55.4797 15.6088 54.8461 16.0004 54.0247 16.0004C52.5614 16.0004 51.4897 16.9838 52.3409 17.5457C53.2213 18.1277 55.5953 16.6518 55.9035 15.3302C56.0745 14.5966 56.4518 13.996 56.7415 13.996C57.5444 13.996 57.3721 15.2006 56.3082 17.0206C55.2657 18.8045 55.6025 21.0841 56.7874 20.263C57.3459 19.8761 57.3465 19.7044 56.7916 19.4973C55.9529 19.184 55.8224 18.0047 56.6259 18.0047C56.9287 18.0047 57.9604 18.884 58.9189 19.9576C60.5592 21.797 60.5908 21.9319 59.4619 22.2626C58.8026 22.4564 57.0741 22.0074 55.6209 21.2651C54.1118 20.4948 52.5567 20.1187 51.994 20.3886C51.1804 20.7788 51.2579 20.9351 52.4398 21.2845L53.8698 21.7081L52.2908 22.5145C50.9181 23.2154 50.7018 23.17 50.641 22.1664C50.6016 21.5311 50.6058 20.7727 50.6493 20.4814C50.6928 20.1901 50.1653 20.2897 49.4769 20.7026C48.7885 21.1155 48.069 21.2792 47.8789 21.0654C47.6882 20.8516 47.8455 20.6772 48.2276 20.6772C48.6103 20.6772 48.9232 20.452 48.9226 20.1761C48.922 19.3523 45.7105 19.3978 44.8069 20.2349C44.122 20.8689 44.2859 21.0741 45.701 21.3553C46.9282 21.5992 47.4331 22.0856 47.4331 23.0256C47.4331 23.7552 47.6512 24.73 47.9183 25.1924C48.2073 25.6934 48.0339 26.4457 47.4885 27.0577C46.6666 27.9791 46.4216 27.9711 45.0662 26.9756C43.4551 25.7923 43.1904 25.02 44.1644 24.3452C45.2211 23.6136 44.2424 22.8479 42.679 23.1833C41.7051 23.3918 41.1746 23.949 41.1746 24.7641C41.1746 25.4556 40.8903 26.0222 40.5434 26.0222C40.1965 26.0222 40.0481 25.775 40.215 25.473C40.6316 24.7173 38.6015 22.8633 37.7181 23.1933C37.2753 23.359 37.1394 23.0597 37.3617 22.409C37.8659 20.9364 36.054 20.3084 34.9316 21.5665C33.5834 23.0778 33.8277 23.7539 35.2141 22.3475C36.3711 21.1736 36.4062 21.1803 36.4062 22.578C36.4062 23.5722 36.0373 24.0178 35.2141 24.0178C34.5519 24.0178 34.022 24.4634 34.022 25.02C34.022 26.2313 35.5712 26.3582 36.0587 25.187C36.3228 24.5516 36.4867 24.5429 36.743 25.1496C36.9278 25.5879 37.4374 25.793 37.8743 25.6052C38.3118 25.4168 38.847 25.5839 39.0634 25.9767C39.2798 26.3689 39.0384 26.6903 38.5275 26.6903C38.0167 26.6903 37.5983 26.9909 37.5983 27.3584C37.5983 27.7259 37.0905 28.0265 36.47 28.0265C35.8495 28.0265 35.1873 28.4775 34.9984 29.0287C34.81 29.5799 33.932 30.0309 33.0475 30.0309C32.163 30.0309 31.6367 29.8091 31.8787 29.5385C32.1201 29.2672 32.7453 29.0421 33.2675 29.0374C33.7902 29.0327 34.3439 28.6051 34.4989 28.0873C34.6926 27.4392 34.4762 27.2762 33.8051 27.5648C33.2686 27.796 32.83 27.6564 32.83 27.2555C32.83 26.7745 32.5254 26.8099 31.9359 27.3584C31.4441 27.8161 31.0418 28.8049 31.0418 29.5558C31.0418 30.3068 30.8654 30.7237 30.6496 30.4819C30.4339 30.24 29.8915 30.383 29.4438 30.7992C28.8007 31.3972 28.7089 31.3264 29.0057 30.4591C29.2424 29.7683 29.0761 29.3628 28.5557 29.3628C27.3088 29.3628 25.0814 31.3143 25.0814 32.4074C25.0814 32.9379 24.7953 33.3715 24.4454 33.3715C24.0895 33.3715 23.9685 33.936 24.1712 34.6516C24.6796 36.4475 23.5763 36.968 21.6011 35.8636C20.5848 35.2957 19.4386 35.128 18.6894 35.438C17.1295 36.0854 16.3761 37.3802 17.5605 37.3802C18.0522 37.3802 18.6202 37.0795 18.8229 36.7121C19.475 35.5295 20.4054 36.0012 20.0311 37.3241C19.8314 38.0283 19.9476 38.7973 20.2886 39.0338C21.0712 39.5756 21.104 41.3889 20.3315 41.3889C20.0144 41.3889 19.9089 40.9379 20.0972 40.3867C20.3148 39.752 20.0895 39.3846 19.4827 39.3846C18.9558 39.3846 18.5165 39.7607 18.507 40.2197C18.4968 40.6834 18.2185 40.5344 17.8811 39.8856C17.027 38.2421 15.575 38.369 15.9678 40.0527C16.2653 41.3274 16.8124 41.6568 18.3037 41.4571C18.6739 41.4076 19.14 42.049 19.3391 42.8815C19.9023 45.2379 19.7921 45.8907 18.7567 46.3357C18.0868 46.6236 17.8948 46.4599 18.1231 45.7945C18.3025 45.2693 18.0641 44.6741 17.5932 44.4716C16.5043 44.0033 16.5174 44.2371 17.7536 47.2563C18.3127 48.6226 18.7818 50.6377 18.7967 51.7341C18.8205 53.5594 19.0589 53.7859 21.6082 54.4066C23.14 54.78 24.6153 55.3433 24.8865 55.6586C25.1577 55.9746 24.8429 56.1029 24.1873 55.9439C23.5316 55.7856 22.2728 56.0521 21.3901 56.5372C20.3613 57.1017 19.6526 57.1799 19.4177 56.753C19.2157 56.3869 19.4529 56.0875 19.9446 56.0875C20.4364 56.0875 21.011 55.7749 21.222 55.3927C21.4729 54.9377 21.0426 54.8562 19.9762 55.1562C18.8241 55.4802 18.4706 55.39 18.7692 54.8488C19.0011 54.4279 18.9659 54.0832 18.6906 54.0832C18.4152 54.0832 17.8287 53.1064 17.3876 51.9118C16.875 50.5261 16.4983 50.1065 16.3463 50.7519C16.0155 52.1537 12.438 53.3483 11.1971 52.471C9.63783 51.3679 9.29391 52.6033 10.7834 53.9556C12.391 55.4141 11.4277 56.1751 8.98814 55.374C8.16857 55.1047 7.84909 54.8549 8.27824 54.8181C8.7074 54.7814 8.89277 54.4506 8.69011 54.0832C8.13341 53.0737 7.2 53.2828 7.2 54.4172C7.2 54.9684 6.86502 55.4288 6.45494 55.4395C6.02996 55.4515 6.14798 55.7461 6.72793 56.1256C7.29 56.4924 7.59518 57.2327 7.40921 57.7752C7.18212 58.4407 7.45928 58.76 8.26454 58.76C8.92019 58.76 9.611 59.211 9.79995 59.7622C10.1808 60.8753 9.27066 61.1492 8.69011 60.0963C8.21864 59.2411 7.2 59.2277 7.2 60.0769C7.2 60.4343 8.05354 60.9742 9.09662 61.2768C10.1397 61.5802 11.0934 62.1648 11.2156 62.5756C11.5261 63.6206 9.01079 64.3976 8.21268 63.503C7.85267 63.0995 7.1553 62.7687 6.66356 62.7687C5.96797 62.7687 5.92863 62.9471 6.48474 63.5705C7.58445 64.8032 7.33471 65.6363 5.98347 65.2408C4.96125 64.9408 4.83012 65.1152 5.16331 66.3318C5.38146 67.1282 5.59366 67.7917 5.63478 67.8064C8.5256 68.8406 9.31 69.3511 9.47451 70.3058C9.61875 71.1476 9.16099 71.5826 7.81273 71.8846C6.52945 72.1725 6.00791 72.6375 6.13367 73.3811C6.33394 74.5664 9.07456 75.1898 10.6773 74.4147C11.7192 73.9116 14.9027 74.0225 15.7294 74.5911C15.9946 74.7735 15.7527 75.3 15.1912 75.7597C13.9317 76.7926 14.6386 78.3359 16.1282 77.8061C17.4168 77.3471 19.5745 79.4129 18.5487 80.1231C17.5015 80.8487 18.5123 82.9693 19.6448 82.4221C21.8311 81.3658 23.8702 81.3592 24.8042 82.4061C25.3311 82.9967 25.5421 83.4898 25.2727 83.5018C24.4966 83.5352 27.0149 85.4848 27.8351 85.4848C28.2404 85.4848 28.927 85.0919 29.3604 84.6116C30.4946 83.3535 35.7702 81.5309 36.1714 82.2585C36.3556 82.5932 37.0005 82.6907 37.6043 82.4763C38.2957 82.2304 38.9513 82.529 39.3769 83.284C39.8567 84.1359 40.1422 84.2414 40.3646 83.6475C40.7693 82.5685 42.1789 82.5685 42.5699 83.6475C42.797 84.2755 43.0259 84.2341 43.492 83.4804C43.8335 82.9292 44.8593 82.4415 45.7725 82.3968C46.6862 82.3513 48.9131 82.1115 50.722 81.8636L54.0116 81.4126L55.6394 85.134C58.6214 91.9489 57.2261 101.159 52.906 103.183C51.2668 103.95 39.8448 105.495 35.6117 105.522C34.9906 105.526 34.6366 105.889 34.7921 106.364C34.9423 106.823 35.3435 107.133 35.6832 107.051C36.0236 106.97 38.2349 106.746 40.5976 106.553C44.5494 106.23 44.8278 106.29 44.0767 107.31C43.34 108.312 43.3865 108.345 44.5625 107.642C45.279 107.215 46.5855 106.865 47.467 106.865C48.7396 106.865 48.9327 107.049 48.4052 107.761C47.3854 109.138 48.2306 109.514 50.0086 108.475C51.8313 107.409 55.7741 107.133 54.3049 108.175C52.7009 109.311 54.0718 109.57 56.2629 108.544C58.9606 107.28 59.6991 107.282 58.2054 108.549C57.5736 109.085 57.2094 109.694 57.396 109.903C57.8549 110.418 62.1822 108.349 62.7324 107.352C63.0387 106.795 63.7319 107.156 65.0265 108.546C66.1787 109.783 66.7294 110.095 66.4809 109.369C65.9057 107.688 67.7713 107.845 73.159 109.93C75.6165 110.881 77.7855 111.482 77.978 111.266C78.1705 111.05 78.0096 110.873 77.621 110.873C76.6536 110.873 71.9818 107.519 72.3597 107.096C72.5266 106.909 73.2621 107.116 73.994 107.555C75.7035 108.58 80.6996 108.943 81.1776 108.077C81.4196 107.638 82.837 107.635 85.3499 108.068C89.2778 108.743 91.094 108.535 87.771 107.79C84.9803 107.165 86.1838 105.974 89.0823 106.492C90.9217 106.823 91.3694 106.742 90.8615 106.172C90.4884 105.753 87.0015 105.118 83.1129 104.761C74.2742 103.949 71.955 103.278 70.4148 101.082C67.9323 97.545 67.4226 91.099 69.2662 86.5625C69.8974 85.0111 70.2264 84.8488 71.9943 85.2209C73.4946 85.5362 74.3141 85.3298 75.2225 84.4078C75.9693 83.6508 77.1137 83.2513 78.1795 83.3769C79.2339 83.5005 79.9175 83.266 79.9175 82.7809C79.9175 82.2297 80.1494 82.1883 80.6626 82.6493C81.4696 83.3735 84.9416 83.1364 88.2449 82.1315C89.8786 81.6344 90.4181 81.7113 90.8097 82.495C91.1345 83.1464 92.1669 83.4664 93.8072 83.4243C95.1829 83.3896 97.7524 83.5807 99.5167 83.8486C102.17 84.2514 102.819 84.1459 103.272 83.2399C103.961 81.8583 104.865 81.8496 106.208 83.2112C107.192 84.2094 107.287 84.1185 107.674 81.8068L108.087 79.3348L109.351 81.0619C110.523 82.6653 110.859 82.7589 114.045 82.3727C116.789 82.04 117.345 81.7807 116.825 81.0772C116.466 80.5942 116.335 79.9053 116.533 79.5472C116.73 79.1891 116.631 78.7154 116.312 78.4943C115.993 78.2731 115.866 77.7032 116.028 77.2268C116.192 76.7511 116.055 75.5672 115.726 74.5958C115.243 73.1714 115.325 72.687 116.149 72.0917C117.113 71.3955 117.113 71.3734 116.146 71.7088C114.775 72.1845 114.28 71.1429 115.389 70.112C116.418 69.154 116.555 68.1137 115.652 68.1137C114.925 68.1137 112.104 64.8486 112.104 64.0074C112.104 63.6934 112.506 63.4369 112.998 63.4369C113.49 63.4369 113.892 63.0106 113.892 62.4901C113.892 61.9697 114.228 61.3924 114.637 61.2067C115.047 61.0216 114.712 60.8412 113.892 60.8071C112.671 60.755 112.564 60.6154 113.296 60.0355C113.973 59.499 114.008 59.2437 113.442 58.9858C113.03 58.7988 112.883 58.301 113.115 57.8794C113.834 56.5753 113.731 54.7513 112.938 54.7513C112.418 54.7513 112.252 53.9135 112.404 52.0468C112.598 49.6816 112.49 49.391 111.541 49.7284C110.331 50.1593 109.251 48.1396 110.303 47.4113C110.734 47.112 110.722 46.3236 110.265 44.8524C109.58 42.6503 108.528 41.9695 108.528 43.7273C108.528 45.0188 107.565 45.0268 107.124 43.7387C106.931 43.1748 106.39 42.9176 105.868 43.1421C105.364 43.3585 104.951 43.2035 104.951 42.7966C104.951 42.3898 104.574 42.057 104.113 42.057C103.581 42.057 103.384 41.59 103.573 40.7796C103.809 39.7694 103.27 39.2042 100.993 38.0757C99.2282 37.2005 98.0355 36.9192 97.9074 37.3488C97.793 37.7336 97.4001 38.0483 97.0342 38.0483C96.546 38.0483 96.5466 37.8485 97.0372 37.2987C97.9783 36.2437 97.3084 34.7117 96.1103 35.1821C95.3289 35.4894 95.2669 35.3905 95.8188 34.7204C96.3463 34.081 96.3529 33.5652 95.8457 32.6553C95.3098 31.6938 95.3885 31.1707 96.2253 30.1344C96.9132 29.2819 97.0598 28.6746 96.6456 28.3873C96.2963 28.1454 96.0066 28.3412 96.0018 28.8222C95.9953 29.4576 95.8719 29.4837 95.5506 28.9178C95.2258 28.3465 94.4551 28.4742 92.6586 29.3975C90.1999 30.6609 87.9832 30.6536 86.8454 29.3781C86.4299 28.9124 86.9258 28.6946 88.4058 28.6946C89.5997 28.6946 90.7346 28.4073 90.9283 28.0559C91.122 27.7045 91.7413 27.5983 92.3046 27.8201C93.1307 28.1454 93.1873 28.0519 92.5978 27.339C92.0626 26.6916 92.0423 26.2179 92.5215 25.5705C92.9989 24.9258 92.9948 24.6859 92.5072 24.6859C92.1395 24.6859 91.8385 24.255 91.8385 23.7285C91.8385 23.202 91.2877 22.576 90.6148 22.3361C89.6331 21.9867 89.5312 21.7128 90.0974 20.9471C90.669 20.1754 90.5897 20.0151 89.682 20.1073C87.3896 20.3391 86.1289 20.0224 86.9694 19.4245C87.5064 19.043 86.9771 18.7203 85.3302 18.425C83.7483 18.1417 82.8978 17.6413 82.8978 16.9945C82.8978 16.448 82.6963 16.0358 82.4507 16.0792C81.0166 16.3331 80.4194 15.9021 80.7735 14.8686C81.1132 13.8764 81.0107 13.8898 79.9432 14.9721C78.9275 16.0024 78.7254 16.0371 78.7254 15.1799C78.7254 13.992 77.3742 13.4735 74.7355 13.6499C73.0892 13.7595 72.9086 13.5958 73.1345 12.1988C73.364 10.7803 73.2728 10.7055 72.2166 11.4451C71.2367 12.1313 70.8261 12.0511 69.7246 10.9601C68.4085 9.65656 68.4061 9.65656 68.7298 11.1064ZM63.8243 13.996C63.8243 14.3635 63.5561 14.6641 63.2283 14.6641C62.9004 14.6641 62.6322 14.3635 62.6322 13.996C62.6322 13.6285 62.9004 13.3279 63.2283 13.3279C63.5561 13.3279 63.8243 13.6285 63.8243 13.996ZM67.5496 13.7702C67.1401 13.9559 66.4696 13.9559 66.0595 13.7702C65.65 13.5851 65.985 13.4334 66.8045 13.4334C67.6241 13.4334 67.9597 13.5851 67.5496 13.7702ZM76.113 15.9776C76.0641 17.068 75.6928 18.3308 75.2887 18.7837C74.7051 19.4378 74.5531 19.1933 74.5531 17.6038C74.5531 16.0197 75.4168 13.996 76.0927 13.996C76.1529 13.996 76.1619 14.8879 76.113 15.9776ZM73.361 16.0004C73.361 16.3678 73.0928 16.6685 72.765 16.6685C72.4372 16.6685 72.169 16.3678 72.169 16.0004C72.169 15.6329 72.4372 15.3322 72.765 15.3322C73.0928 15.3322 73.361 15.6329 73.361 16.0004ZM71.3333 17.8283C70.86 18.3582 67.9966 17.3814 67.9966 16.6905C67.9966 16.3277 68.753 16.3658 69.8152 16.7807C70.8153 17.1716 71.4984 17.6426 71.3333 17.8283ZM60.248 17.3366C60.248 17.7041 59.9798 18.0047 59.652 18.0047C59.3242 18.0047 59.056 17.7041 59.056 17.3366C59.056 16.9691 59.3242 16.6685 59.652 16.6685C59.9798 16.6685 60.248 16.9691 60.248 17.3366ZM65.6125 18.8392C65.6125 19.1211 65.076 18.9768 64.4204 18.5178C63.7647 18.0588 63.2283 17.4522 63.2283 17.1702C63.2283 16.8883 63.7647 17.0326 64.4204 17.4916C65.076 17.9506 65.6125 18.5573 65.6125 18.8392ZM81.6485 17.8845C81.9673 18.5532 83.318 19.5033 84.6495 19.9957C85.9805 20.4881 87.0701 21.1435 87.0701 21.4522C87.0701 22.2312 86.027 22.1564 85.58 21.3453C85.3773 20.9779 84.9124 20.6772 84.547 20.6772C84.1811 20.6772 84.454 21.3593 85.1526 22.1938C86.6999 24.0392 86.6797 27.5655 85.1204 27.9022C83.9075 28.1641 83.706 26.8894 84.9106 26.572C85.5138 26.4137 85.5913 25.938 85.2027 24.7768C84.8069 23.5942 84.4827 23.3751 83.914 23.9042C83.3293 24.4481 83.1588 24.1955 83.1749 22.8112C83.1863 21.821 83.464 20.7901 83.7918 20.5202C84.1197 20.2503 83.7686 20.0251 83.0116 20.0191C82.2439 20.0138 81.7981 20.3044 82.0037 20.6772C82.2064 21.0447 82.0877 21.3453 81.7409 21.3453C81.394 21.3453 81.1096 20.9845 81.1096 20.5436C81.1096 19.9202 80.9505 19.9202 80.3944 20.5436C79.3877 21.672 77.5334 21.5417 77.5334 20.3431C77.5334 19.675 78.1294 19.341 79.3215 19.341C80.305 19.341 81.1096 19.0403 81.1096 18.6728C81.1096 18.3054 80.7073 18.0047 80.2156 18.0047C79.7238 18.0047 79.3215 17.7041 79.3215 17.3366C79.3215 16.1981 81.0357 16.6017 81.6485 17.8845ZM68.8651 18.6267C69.4623 19.7098 68.1647 20.0391 67.3952 18.9995C66.7962 18.1905 66.8326 18.0047 67.5907 18.0047C68.1027 18.0047 68.6767 18.2847 68.8651 18.6267ZM65.0164 21.3453C65.0164 21.7128 64.7482 22.0134 64.4204 22.0134C64.0925 22.0134 63.8243 21.7128 63.8243 21.3453C63.8243 20.9779 64.0925 20.6772 64.4204 20.6772C64.7482 20.6772 65.0164 20.9779 65.0164 21.3453ZM70.9769 20.9718C70.9769 21.6767 69.833 21.9733 69.4927 21.356C69.2871 20.9825 69.5368 20.6772 70.0476 20.6772C70.5584 20.6772 70.9769 20.8095 70.9769 20.9718ZM65.0164 23.3497C65.0164 23.7171 64.7482 24.0178 64.4204 24.0178C64.0925 24.0178 63.8243 23.7171 63.8243 23.3497C63.8243 22.9822 64.0925 22.6816 64.4204 22.6816C64.7482 22.6816 65.0164 22.9822 65.0164 23.3497ZM76.9373 23.3938C76.9373 24.5282 75.5956 24.8042 74.7409 23.8461C73.9511 22.9615 74.025 22.8486 75.3941 22.8486C76.2429 22.8486 76.9373 23.0938 76.9373 23.3938ZM61.4401 25.5177C61.4401 25.8905 61.045 25.8177 60.5461 25.354C60.0543 24.8964 59.652 24.2216 59.652 23.8541C59.652 23.4813 60.0472 23.5541 60.5461 24.0178C61.0378 24.4755 61.4401 25.1503 61.4401 25.5177ZM80.3521 24.4213C80.1542 24.6432 79.6398 24.6672 79.21 24.4741C78.7344 24.261 78.8757 24.1026 79.5701 24.0706C80.1983 24.0418 80.5499 24.1995 80.3521 24.4213ZM88.8827 26.0729C89.49 27.3457 89.4412 27.3978 88.2908 26.7076C87.6012 26.2934 87.1941 25.6694 87.3866 25.3206C87.895 24.3986 88.1424 24.5229 88.8827 26.0729ZM67.2891 26.8573C67.0787 28.551 64.1861 29.6748 62.6441 28.6619C61.9706 28.2196 61.9432 28.0619 62.538 28.0466C62.9785 28.0359 64.0204 27.4252 64.8537 26.6903C66.8236 24.9532 67.5192 25.0013 67.2891 26.8573ZM70.63 27.0958C72.1362 27.7439 71.7237 28.3606 69.7848 28.3606C68.7518 28.3606 67.9966 28.0078 67.9966 27.5254C67.9966 26.6261 69.1142 26.4437 70.63 27.0958ZM41.0894 30.0903C39.7375 31.0264 39.0217 29.4763 40.3127 28.408C41.3308 27.5655 41.4982 27.5755 41.68 28.4922C41.7945 29.0668 41.5286 29.7857 41.0894 30.0903ZM44.1548 29.3628C44.1548 29.7302 44.0368 30.0309 43.892 30.0309C43.7471 30.0309 43.4634 29.7302 43.2607 29.3628C43.0581 28.9953 43.1767 28.6946 43.5236 28.6946C43.8705 28.6946 44.1548 28.9953 44.1548 29.3628ZM79.0235 29.3628C78.8208 29.7302 78.3869 30.0309 78.0591 30.0309C77.7313 30.0309 77.6287 29.7302 77.8314 29.3628C78.034 28.9953 78.468 28.6946 78.7958 28.6946C79.1236 28.6946 79.2261 28.9953 79.0235 29.3628ZM85.58 29.3628C85.3773 29.7302 84.9595 30.0309 84.6507 30.0309C84.342 30.0309 84.0899 29.7302 84.0899 29.3628C84.0899 28.9953 84.5083 28.6946 85.0191 28.6946C85.5299 28.6946 85.7826 28.9953 85.58 29.3628ZM50.9277 31.0451C51.4784 30.2006 51.851 30.0636 52.1454 30.5981C52.6932 31.5903 52.0739 32.7034 50.9742 32.7034C50.5015 32.7034 50.1153 33.004 50.1153 33.3715C50.1153 33.7389 49.847 34.0396 49.5192 34.0396C49.1914 34.0396 48.9232 33.4984 48.9232 32.837C48.9232 32.1755 48.5882 31.2061 48.1781 30.6836C47.7686 30.1605 48.041 30.3015 48.7837 30.997C50.0873 32.2176 50.1618 32.2196 50.9277 31.0451ZM55.3915 31.5341C53.9115 34.7404 53.7774 35.2663 54.0969 36.6352C54.4515 38.1559 54.3067 38.2708 52.8309 37.6361C52.0894 37.3174 52.0274 37.0154 52.5573 36.2998C53.0556 35.627 53.0597 35.3758 52.5722 35.3758C51.572 35.3758 51.7651 32.7207 52.7975 32.2771C53.2892 32.0653 53.6915 31.4733 53.6915 30.9616C53.6915 30.4498 54.2304 30.0309 54.8884 30.0309C55.9386 30.0309 56.0006 30.2159 55.3915 31.5341ZM28.0616 31.3671C28.0616 31.7346 27.7934 32.0352 27.4655 32.0352C27.1377 32.0352 26.8695 31.7346 26.8695 31.3671C26.8695 30.9996 27.1377 30.699 27.4655 30.699C27.7934 30.699 28.0616 30.9996 28.0616 31.3671ZM37.2997 31.3684C37.0964 31.7366 37.6842 32.3853 38.6056 32.8096C39.9539 33.4316 40.0719 33.6374 39.2088 33.8659C38.6193 34.0222 37.7479 33.7877 37.2717 33.3447C36.5678 32.69 36.4044 32.7728 36.3973 33.7911C36.3895 34.8347 36.2948 34.8767 35.8257 34.0449C35.378 33.2512 35.1128 33.2178 34.5239 33.8779C33.5416 34.979 31.5896 34.9576 31.9687 33.8498C32.1302 33.3782 32.9939 32.9298 33.8873 32.8543C34.7808 32.7782 35.7792 32.2624 36.1052 31.7079C36.7531 30.6061 37.8999 30.2801 37.2997 31.3684ZM47.7341 32.8089C49.3738 34.6476 49.5657 35.2235 49.2218 37.2786C48.866 39.4019 48.9232 39.5482 49.7946 38.7378C50.5808 38.0062 50.8967 37.9982 51.4814 38.6944C52.0447 39.3652 52.0381 39.6184 51.4528 39.8589C51.0409 40.0286 50.8556 40.4415 51.0409 40.7776C51.6286 41.8439 50.7089 41.4384 49.372 40.0426C47.9981 38.6075 46.837 38.6022 46.837 40.032C46.837 40.5103 46.2332 41.1517 45.4959 41.4577C44.4892 41.8753 44.1548 41.7697 44.1548 41.0335C44.1548 39.6805 43.132 39.8068 41.3474 41.3796C39.9432 42.6182 38.7904 42.6557 38.7904 41.4624C38.7904 40.5644 41.8708 39.0572 43.2816 39.2643C44.0273 39.3739 44.8129 39.1454 45.0274 38.7558C45.2414 38.367 44.9988 38.0483 44.488 38.0483C43.9772 38.0483 43.5588 37.7249 43.5588 37.3301C43.5588 36.9199 44.3909 36.7047 45.4959 36.829C47.3294 37.0348 47.4223 36.9386 47.2376 35.0418C47.1303 33.9394 46.4597 32.5183 45.7474 31.8829C45.0358 31.2482 44.7676 30.7217 45.152 30.7137C45.5364 30.7057 46.6981 31.6484 47.7341 32.8089ZM42.3667 32.5918C42.3667 33.2659 41.9644 33.8171 41.4726 33.8171C40.3848 33.8171 40.3616 33.5913 41.3236 32.3666C42.2969 31.1273 42.3667 31.1426 42.3667 32.5918ZM93.6266 32.8062C93.6266 33.441 93.3584 34.1465 93.0305 34.3737C92.7027 34.6008 92.4345 34.3175 92.4345 33.745C92.4345 33.1724 92.1663 32.7034 91.8385 32.7034C91.5106 32.7034 91.2424 32.4214 91.2424 32.0767C91.2424 31.7319 91.7788 31.4954 92.4345 31.5508C93.1319 31.6096 93.6266 32.1301 93.6266 32.8062ZM59.056 34.4131C59.056 34.9856 58.7836 35.2656 58.4504 35.0351C58.1172 34.8039 57.9986 34.3356 58.1875 33.9935C58.6983 33.0668 59.056 33.2392 59.056 34.4131ZM84.6859 34.0396C84.6859 34.4071 84.2675 34.7077 83.7567 34.7077C83.2459 34.7077 82.9931 34.4071 83.1958 34.0396C83.3984 33.6721 83.8163 33.3715 84.125 33.3715C84.4338 33.3715 84.6859 33.6721 84.6859 34.0396ZM30.9739 35.2476C32.0235 36.3693 31.2862 37.2252 28.7882 37.7851C27.5371 38.0657 26.8695 37.9541 26.8695 37.4637C26.8695 37.0501 27.6742 36.7121 28.6576 36.7121C29.6411 36.7121 30.4458 36.3767 30.4458 35.9658C30.4458 35.5375 29.9141 35.3758 29.1965 35.5863C27.7451 36.0119 26.1471 35.4767 26.5715 34.7084C27.0215 33.8913 30.0512 34.2627 30.9739 35.2476ZM88.8582 34.7077C88.8582 35.0752 88.59 35.3758 88.2622 35.3758C87.9344 35.3758 87.6661 35.0752 87.6661 34.7077C87.6661 34.3402 87.9344 34.0396 88.2622 34.0396C88.59 34.0396 88.8582 34.3402 88.8582 34.7077ZM39.3865 35.3758C39.3865 35.7433 38.9037 36.044 38.3136 36.044C37.7235 36.044 36.9188 36.4047 36.5254 36.8457C36.1279 37.2913 35.8102 37.3508 35.8102 36.9793C35.8102 35.9177 37.1435 34.7077 38.3136 34.7077C38.9037 34.7077 39.3865 35.0084 39.3865 35.3758ZM72.765 36.0045C72.765 36.3506 72.4968 36.819 72.169 37.0461C71.8411 37.2733 71.5729 36.99 71.5729 36.4174C71.5729 35.8449 71.8411 35.3758 72.169 35.3758C72.4968 35.3758 72.765 35.6584 72.765 36.0045ZM76.6393 36.044C76.8419 36.4114 76.7394 36.7121 76.4116 36.7121C76.0838 36.7121 75.6499 36.4114 75.4472 36.044C75.2445 35.6765 75.3471 35.3758 75.6749 35.3758C76.0027 35.3758 76.4366 35.6765 76.6393 36.044ZM82.5997 36.044C82.8024 36.4114 82.6838 36.7121 82.3369 36.7121C81.99 36.7121 81.7057 36.4114 81.7057 36.044C81.7057 35.6765 81.8237 35.3758 81.9685 35.3758C82.1134 35.3758 82.3971 35.6765 82.5997 36.044ZM24.1235 38.4372C24.6403 39.9458 24.5908 40.056 23.5912 39.6264C23.0995 39.4146 22.6972 38.8227 22.6972 38.3109C22.6972 37.0448 23.6765 37.1317 24.1235 38.4372ZM57.4448 42.031C56.4483 42.9349 56.3112 43.3899 56.8524 43.9966C57.393 44.6026 57.3501 44.9279 56.667 45.401C56.0656 45.8179 55.488 45.6929 54.8836 45.0155C54.0891 44.1242 54.0891 43.9438 54.8836 43.3879C55.5613 42.9142 55.6233 42.486 55.1411 41.6181C54.6947 40.8157 54.6911 40.0293 55.1286 38.989L55.7539 37.5051L57.2476 39.1794L58.7412 40.8537L57.4448 42.031ZM81.6884 38.0223C82.1706 38.3643 82.3655 38.8674 82.1211 39.1414C81.8773 39.4153 81.2241 39.1307 80.6697 38.5093C79.5927 37.302 80.237 36.9933 81.6884 38.0223ZM30.4458 39.3846C30.4458 39.752 30.1776 40.0527 29.8497 40.0527C29.5219 40.0527 29.2537 39.752 29.2537 39.3846C29.2537 39.0171 29.5219 38.7164 29.8497 38.7164C30.1776 38.7164 30.4458 39.0171 30.4458 39.3846ZM60.248 39.0111C60.248 39.1734 59.9798 39.4914 59.652 39.7186C59.3242 39.9458 59.056 39.8128 59.056 39.424C59.056 39.0351 59.3242 38.7164 59.652 38.7164C59.9798 38.7164 60.248 38.8487 60.248 39.0111ZM101.595 40.3974C101.922 41.3535 100.414 42.2955 99.5334 41.6856C99.2348 41.4791 98.991 40.7549 98.991 40.0761C98.991 39.1855 99.3117 38.9356 100.142 39.1788C100.775 39.3645 101.428 39.9124 101.595 40.3974ZM36.8652 40.5832C37.0464 41.2005 36.7001 41.3294 35.651 41.0341C34.608 40.7408 34.0763 40.9346 33.8128 41.7049C33.4224 42.8454 31.6373 42.8568 30.9131 41.723C30.4213 40.9533 33.7437 39.3966 35.4657 39.5903C36.0957 39.6605 36.7251 40.1075 36.8652 40.5832ZM98.395 40.0527C98.395 40.4201 97.7083 40.7208 96.8697 40.7208C96.0048 40.7208 95.5035 40.4315 95.7127 40.0527C95.9154 39.6852 96.6015 39.3846 97.238 39.3846C97.8746 39.3846 98.395 39.6852 98.395 40.0527ZM60.8441 41.3889C60.8441 41.7564 60.7261 42.057 60.5812 42.057C60.4364 42.057 60.1527 41.7564 59.95 41.3889C59.7474 41.0214 59.866 40.7208 60.2129 40.7208C60.5598 40.7208 60.8441 41.0214 60.8441 41.3889ZM71.2749 41.3889C71.0722 41.7564 70.5042 42.057 70.0125 42.057C69.5207 42.057 69.2841 41.7564 69.4867 41.3889C69.6894 41.0214 70.2574 40.7208 70.7492 40.7208C71.2409 40.7208 71.4775 41.0214 71.2749 41.3889ZM88.4112 41.1631C88.0017 41.3488 87.3312 41.3488 86.9211 41.1631C86.5116 40.978 86.8466 40.8264 87.6661 40.8264C88.4857 40.8264 88.8213 40.978 88.4112 41.1631ZM24.0496 41.8272C23.6461 42.0103 22.8414 42.0216 22.2615 41.8519C21.6815 41.6822 22.0117 41.5326 22.9952 41.5192C23.9787 41.5058 24.4531 41.6441 24.0496 41.8272ZM26.2735 42.057C26.2735 42.4245 26.1554 42.7251 26.0106 42.7251C25.8658 42.7251 25.582 42.4245 25.3794 42.057C25.1767 41.6896 25.2953 41.3889 25.6422 41.3889C25.9891 41.3889 26.2735 41.6896 26.2735 42.057ZM52.7635 42.3363C51.5148 43.3599 50.9491 43.2476 51.5809 42.1018C51.7967 41.7096 52.4112 41.3889 52.9465 41.3889C53.7601 41.3889 53.7303 41.5439 52.7635 42.3363ZM62.848 42.3911C62.659 42.9423 62.0797 43.3933 61.5605 43.3933C60.7952 43.3933 60.8357 43.2069 61.7733 42.4125C63.2295 41.1778 63.2634 41.1771 62.848 42.3911ZM38.9722 44.0995C39.2351 45.2273 39.1409 45.3328 38.4453 44.6861C37.497 43.8035 37.3212 42.7251 38.1246 42.7251C38.4143 42.7251 38.7958 43.3438 38.9722 44.0995ZM41.7706 43.3933C41.7706 43.7607 41.5024 44.0614 41.1746 44.0614C40.8468 44.0614 40.5785 43.7607 40.5785 43.3933C40.5785 43.0258 40.8468 42.7251 41.1746 42.7251C41.5024 42.7251 41.7706 43.0258 41.7706 43.3933ZM30.4577 46.3838C29.5898 47.5557 26.2735 47.7715 26.2735 46.6557C26.2735 46.2455 26.764 46.0537 27.3636 46.2294C27.9632 46.4052 28.9497 46.1426 29.5553 45.6462C30.9119 44.5344 31.4817 45.0008 30.4577 46.3838ZM41.1746 48.1062C41.1746 48.342 40.3288 48.5618 39.2959 48.5946C38.2623 48.628 37.1936 49.0496 36.9206 49.5313C36.4712 50.3263 36.318 50.1446 36.4569 48.9801C36.4849 48.7456 36.1499 48.2946 35.7118 47.9779C35.0586 47.5049 35.0556 47.3011 35.6963 46.8374C36.5016 46.2542 41.1746 47.3372 41.1746 48.1062ZM49.5192 47.0285C49.5192 48.5164 48.5858 48.8124 48.4881 47.3559C48.4404 46.6463 48.6526 46.0657 48.9601 46.0657C49.2677 46.0657 49.5192 46.4987 49.5192 47.0285ZM108.449 47.567C107.95 48.6133 107.65 48.7923 107.461 48.1583C107.312 47.6572 107.559 46.9864 108.008 46.6671C109.199 45.8212 109.241 45.9074 108.449 47.567ZM46.5569 48.7008C45.7975 50.2916 44.8093 51.0319 44.2639 50.4179C44.0404 50.166 44.4898 49.3843 45.2641 48.6808C47.0427 47.0639 47.3359 47.0686 46.5569 48.7008ZM33.9458 48.6714C34.3952 48.9908 34.6568 49.6101 34.5263 50.0484C34.3737 50.5629 33.8933 50.3537 33.1691 49.4578C32.0313 48.0481 32.4586 47.6151 33.9458 48.6714ZM43.5588 48.7382C43.5588 49.1057 43.2745 49.4063 42.9276 49.4063C42.5807 49.4063 42.462 49.1057 42.6647 48.7382C42.8674 48.3708 43.1511 48.0701 43.2959 48.0701C43.4408 48.0701 43.5588 48.3708 43.5588 48.7382ZM83.7662 49.4524C83.2059 50.4693 82.3101 50.1586 82.6808 49.0763C82.8692 48.5271 83.2673 48.2472 83.5659 48.4543C83.8646 48.6614 83.9552 49.1104 83.7662 49.4524ZM24.4853 50.0745C24.4853 50.4419 24.2171 50.7426 23.8893 50.7426C23.5614 50.7426 23.2932 50.4419 23.2932 50.0745C23.2932 49.707 23.5614 49.4063 23.8893 49.4063C24.2171 49.4063 24.4853 49.707 24.4853 50.0745ZM26.2735 49.701C26.2735 49.8633 26.0052 50.1814 25.6774 50.4085C25.3496 50.6357 25.0814 50.5027 25.0814 50.1139C25.0814 49.725 25.3496 49.4063 25.6774 49.4063C26.0052 49.4063 26.2735 49.5386 26.2735 49.701ZM49.5192 50.035C49.5192 51.1922 48.4702 51.4067 47.7257 50.4012C47.1124 49.5734 47.2012 49.4063 48.2544 49.4063C48.95 49.4063 49.5192 49.689 49.5192 50.035ZM21.1266 52.2251C20.6146 53.1532 19.7491 52.0949 20.1241 50.9991C20.4012 50.1894 20.5824 50.1506 20.9526 50.8214C21.213 51.2944 21.2917 51.9258 21.1266 52.2251ZM41.7706 50.7426C41.7706 51.1101 41.3969 51.4107 40.9403 51.4107C40.4838 51.4107 39.9557 51.8617 39.7667 52.4129C39.2988 53.7812 37.2204 53.6803 36.7364 52.2659C36.5201 51.6345 36.5105 51.3051 36.715 51.5343C36.9194 51.7628 37.8051 51.5303 38.6837 51.0165C40.5642 49.9168 41.7706 49.8099 41.7706 50.7426ZM108.528 52.7469C108.528 53.1144 108.059 53.4104 107.485 53.405C106.593 53.3964 106.572 53.3001 107.336 52.7469C108.46 51.9318 108.528 51.9318 108.528 52.7469ZM48.3271 53.0416C48.3271 53.2039 48.0589 53.522 47.7311 53.7491C47.4033 53.9763 47.135 53.8433 47.135 53.4545C47.135 53.0656 47.4033 52.7469 47.7311 52.7469C48.0589 52.7469 48.3271 52.8792 48.3271 53.0416ZM44.1548 53.7097C44.1548 53.8721 43.8866 54.1901 43.5588 54.4172C43.2309 54.6444 42.9627 54.5114 42.9627 54.1226C42.9627 53.7338 43.2309 53.4151 43.5588 53.4151C43.8866 53.4151 44.1548 53.5473 44.1548 53.7097ZM108.528 55.4194C108.528 55.7869 108.41 56.0875 108.265 56.0875C108.12 56.0875 107.836 55.7869 107.634 55.4194C107.431 55.052 107.55 54.7513 107.897 54.7513C108.243 54.7513 108.528 55.052 108.528 55.4194ZM32.83 56.0875C32.83 56.455 32.7119 56.7557 32.5671 56.7557C32.4223 56.7557 32.1385 56.455 31.9359 56.0875C31.7332 55.7201 31.8518 55.4194 32.1987 55.4194C32.5456 55.4194 32.83 55.7201 32.83 56.0875ZM46.539 57.4238C46.539 57.7912 46.2547 58.0919 45.9078 58.0919C45.5609 58.0919 45.4423 57.7912 45.6449 57.4238C45.8476 57.0563 46.1313 56.7557 46.2761 56.7557C46.421 56.7557 46.539 57.0563 46.539 57.4238ZM54.2828 57.9249C54.2804 58.2001 53.6099 58.7734 52.7927 59.1983C51.0725 60.0929 50.8365 59.6419 52.3504 58.3538C53.5282 57.3516 54.29 57.1826 54.2828 57.9249ZM33.2645 58.4954C33.0666 58.7173 32.5522 58.7413 32.1224 58.5482C31.6468 58.3351 31.7881 58.1768 32.4825 58.1447C33.1107 58.116 33.4624 58.2736 33.2645 58.4954ZM73.9571 58.76C73.9571 59.1275 73.6728 59.4281 73.3259 59.4281C72.979 59.4281 72.8604 59.1275 73.063 58.76C73.2657 58.3926 73.5494 58.0919 73.6942 58.0919C73.8391 58.0919 73.9571 58.3926 73.9571 58.76ZM33.029 62.5803C32.495 63.028 31.7887 63.2077 31.4596 62.9792C31.1306 62.7514 30.5161 63.0928 30.0953 63.7388C29.6739 64.3843 29.0629 64.8058 28.7369 64.6755C27.7552 64.2834 29.5404 62.1454 31.0686 61.8835C31.8387 61.7519 32.5826 61.2621 32.7215 60.7944C32.92 60.1277 33.0845 60.141 33.4868 60.8559C33.8206 61.4479 33.6602 62.0512 33.029 62.5803ZM43.095 62.2676C44.1661 63.648 44.1775 63.7903 43.2369 64.0034C42.673 64.1317 42.0454 63.9814 41.8422 63.6694C41.2127 62.7039 39.4663 63.0574 38.3583 64.3742C37.3963 65.5167 37.3921 65.5949 38.313 65.2361C39.0437 64.9515 39.2297 65.1219 38.9811 65.8474C38.7916 66.4013 38.2468 66.6866 37.7706 66.4815C37.2943 66.277 36.6429 66.1093 36.3222 66.1093C36.0021 66.1093 35.9306 65.7632 36.1642 65.3397C36.3973 64.9167 36.1183 64.1852 35.5437 63.7141C34.9692 63.2431 34.6753 62.5369 34.8917 62.1454C35.4353 61.1586 36.439 61.2488 36.2572 62.2676C36.175 62.7273 36.5105 62.9825 37.0023 62.8362C37.494 62.6892 38.6336 62.43 39.5355 62.259C40.4373 62.0886 41.1746 61.6824 41.1746 61.357C41.1746 60.3602 41.872 60.6909 43.095 62.2676ZM23.5912 62.7687C23.7939 63.1362 23.5412 63.4369 23.0304 63.4369C22.5196 63.4369 22.1011 63.1362 22.1011 62.7687C22.1011 62.4013 22.3533 62.1006 22.662 62.1006C22.9708 62.1006 23.3886 62.4013 23.5912 62.7687ZM25.6774 62.7687C25.6774 63.1362 25.4092 63.4369 25.0814 63.4369C24.7535 63.4369 24.4853 63.1362 24.4853 62.7687C24.4853 62.4013 24.7535 62.1006 25.0814 62.1006C25.4092 62.1006 25.6774 62.4013 25.6774 62.7687ZM15.5446 63.4369C15.5446 63.8043 15.1423 64.105 14.6506 64.105C14.1588 64.105 13.7565 63.8043 13.7565 63.4369C13.7565 63.0694 14.1588 62.7687 14.6506 62.7687C15.1423 62.7687 15.5446 63.0694 15.5446 63.4369ZM18.5249 63.0634C18.5249 63.2257 18.2566 63.5438 17.9288 63.7709C17.601 63.9981 17.3328 63.8651 17.3328 63.4763C17.3328 63.0874 17.601 62.7687 17.9288 62.7687C18.2566 62.7687 18.5249 62.901 18.5249 63.0634ZM66.2085 64.7731C66.2085 65.1406 65.7901 65.4412 65.2793 65.4412C64.7684 65.4412 64.5157 65.1406 64.7184 64.7731C64.921 64.4056 65.3389 64.105 65.6476 64.105C65.9564 64.105 66.2085 64.4056 66.2085 64.7731ZM43.8568 65.4412C44.0594 65.8087 43.9408 66.1093 43.5939 66.1093C43.247 66.1093 42.9627 65.8087 42.9627 65.4412C42.9627 65.0737 43.0807 64.7731 43.2256 64.7731C43.3704 64.7731 43.6541 65.0737 43.8568 65.4412ZM48.3271 65.7359C48.3271 66.4407 47.1833 66.7374 46.843 66.12C46.6373 65.7465 46.8871 65.4412 47.3979 65.4412C47.9087 65.4412 48.3271 65.5735 48.3271 65.7359ZM29.8497 68.0743C29.8497 68.9762 28.7631 69.6016 28.0521 69.1092C27.7189 68.878 27.6003 68.4097 27.7892 68.0676C28.2362 67.2558 29.8497 67.2612 29.8497 68.0743ZM21.2214 69.8635C20.6903 70.4588 20.108 70.7788 19.9268 70.5764C19.3963 69.9811 20.3041 68.7818 21.2846 68.7818C22.063 68.7818 22.0546 68.9295 21.2214 69.8635ZM36.4062 70.7862C37.1769 71.3441 37.1608 71.4349 36.2924 71.4443C35.7381 71.4496 35.1188 71.1536 34.9161 70.7862C34.45 69.9403 35.2392 69.9403 36.4062 70.7862ZM62.0362 81.4554C62.0362 81.8108 62.4385 81.9291 62.9302 81.7179C63.422 81.5061 63.8243 81.6565 63.8243 82.052C63.8243 82.4469 64.2576 82.5838 64.7875 82.356C65.5886 82.0113 65.6446 82.1649 65.1183 83.2673C64.4299 84.7085 62.7121 86.503 62.4248 86.0814C61.3483 84.5007 59.652 81.5182 59.652 81.2062C59.652 80.987 60.1884 80.808 60.8441 80.808C61.4997 80.808 62.0362 81.0993 62.0362 81.4554Z" fill="#1B4332"/>
<line x1="31.9519" y1="113.016" x2="91.845" y2="113.016" stroke="white" stroke-width="14.3743"/>
<path d="M54.5422 57.7223C54.4385 57.8382 53.5036 58.362 52.5828 59.036C51.9117 59.5272 54.902 58.8383 55.9752 58.2829C56.3966 58.0648 56.4781 57.7855 56.1426 57.637C53.8735 56.6326 52.2418 57.6625 51.8207 57.7802C51.4122 57.8945 52.9678 57.5465 53.5947 57.4885C53.9137 57.459 54.2217 57.3145 53.7338 57.8637C53.2459 58.4129 51.9495 59.6309 51.4892 59.9973C51.3699 60.0922 52.1302 58.608 52.3934 57.5245C52.4843 57.1505 52.1381 57.079 51.9268 57.0781C51.7154 57.0773 51.5599 57.1353 51.5575 57.1941C51.5309 57.858 53.0715 57.2548 53.5703 57.108C53.7414 57.0577 53.0243 57.369 52.7894 57.6036C52.6835 57.7094 52.5026 57.6063 55.2485 57.8084C57.9944 58.0105 63.6464 58.4745 66.6617 58.6845C69.677 58.8945 69.8845 58.8365 69.4728 58.8356C69.0611 58.8347 68.024 58.8927 65.8305 59.3576C63.6369 59.8224 60.3183 60.6924 58.2717 61.3145C56.2251 61.9367 55.551 62.2847 55.6704 62.5799C55.7898 62.8752 56.7232 63.1072 59.3818 62.9367C62.0405 62.7662 66.3961 62.1863 68.8474 61.8295C71.2986 61.4727 71.7135 61.3567 71.7975 61.268C71.8816 61.1792 71.6223 61.1212 69.9591 61.3523C68.2959 61.5834 65.2365 62.1054 63.2457 62.5773C61.2548 63.0492 60.4252 63.4552 60.0237 63.7803C59.6222 64.1054 59.6741 64.3374 60.3749 64.3989C61.0757 64.4604 62.4239 64.3444 62.4443 64.4587C62.717 65.9838 58.7942 66.0334 57.743 67.0887C57.2826 67.551 60.1361 66.5149 62.1222 65.4341C65.3459 63.6797 66.8974 63.1704 67.8394 63.1994C69.5573 63.2523 61.6634 64.6924 62.2628 64.8102C64.006 65.1526 65.5822 64.5764 66.4315 64.4306C66.4871 64.421 66.1227 64.4007 66.1447 64.4587C66.1667 64.5167 66.4779 64.6327 65.7307 64.9534C64.9835 65.2741 63.1687 65.7961 61.2988 66.3339" stroke="#1B4332" stroke-width="1.19786" stroke-linecap="round"/>
<path d="M88.6393 50.1651C85.7764 49.4639 81.9896 49.1686 81.8049 49.2565C81.7726 49.2719 82.087 49.2864 81.9872 49.3154C80.6996 49.6896 80.1558 50.7486 78.3386 52.318C76.7183 53.7174 73.5139 56.0913 71.5474 57.8391C68.7304 60.3429 68.1086 61.8787 68.0811 62.3761C68.0688 62.5999 68.4166 62.6995 68.7057 62.6142C69.3706 62.4182 70.1969 60.1423 71.113 56.7803C71.5329 55.239 71.5624 53.9402 71.0973 52.0649C70.6321 50.1897 69.5951 47.7538 68.5682 45.716C66.7031 42.0147 65.1263 40.035 64.4978 39.419C64.3073 39.2323 64.2841 39.441 64.5433 39.4726C65.3202 39.5674 66.2183 39.0947 66.8202 38.6861C67.0919 38.5016 67.1627 38.1615 66.9828 37.6931C66.5163 36.4787 65.1813 35.5235 63.9784 34.9084C63.1498 34.4847 61.7794 34.8153 58.9652 35.977C56.9947 36.7904 54.2843 38.9946 52.5825 40.2424C50.3273 41.896 49.7243 42.6062 48.5042 44.9287C47.3786 47.0712 45.2618 51.195 43.9333 54.4182C42.6047 57.6414 42.1381 59.8453 41.8976 61.1546C41.6572 62.464 41.6572 62.8119 42.0461 63.4552C43.069 65.1471 44.2216 66.0984 44.6914 65.8972C45.7339 65.4507 46.0522 63.8752 47.4074 63.4956C49.5606 62.8925 51.2391 62.877 51.6327 63.3418C52.3481 64.1867 51.1401 65.7434 50.6176 66.5044C50.228 67.072 48.3761 67.4429 45.5282 68.145C44.1405 68.4871 42.8357 68.6151 40.4049 68.8208C37.9741 69.0264 34.4481 69.2584 32.4761 69.3199C29.649 69.4081 28.6217 68.2707 27.6506 67.8585C26.0574 67.1824 25.1617 67.2724 24.4278 67.0967C23.5876 66.8954 23.3798 65.4025 22.4126 64.1705C21.8298 63.428 21.2318 63.2882 21.3591 63.3453C23.4795 64.2969 25.2559 63.9297 26.6458 63.6995C28.4249 63.4047 29.5016 62.2355 30.3399 61.7671C32.0098 60.8341 32.6442 59.427 34.0293 56.4217C35.6376 52.9323 36.3132 50.2266 36.6008 49.5553C36.9428 48.7567 37.1507 47.8259 37.8798 46.7468C39.0667 44.9902 40.7082 43.7837 41.9621 42.9076C43.2647 41.9974 44.7386 40.3338 46.1779 38.694C47.259 37.4624 49.1367 36.5833 49.9317 35.4348C50.0494 35.2648 49.9852 35.0543 50.037 34.8777C50.1462 34.5058 51.0254 33.9998 53.7846 33.0376C55.7953 32.3364 59.1365 31.5534 61.0794 31.1052C63.4717 30.5534 64.8513 30.8311 66.498 31.1817C69.3126 31.781 71.4021 32.295 74.0945 33.027C74.8113 33.2219 75.7468 33.9893 77.4438 35.3337C80.5502 37.7948 81.8796 37.7432 83.9435 38.5042C84.9975 38.8929 85.9115 39.325 86.3075 39.9691C86.4074 40.1316 86.4898 40.3197 86.5691 40.2933C86.6485 40.267 86.7003 40.035 86.6233 39.7705C86.2919 38.632 85.657 37.462 85.0536 36.1677C84.6483 35.2982 83.3566 34.8188 82.5395 34.1167C81.6905 33.3871 81.4176 31.6026 80.4976 30.5428C79.9669 29.9315 79.5289 29.3706 78.8996 28.9013C78.2703 28.4321 77.5396 27.9646 76.7265 27.3495C75.989 26.7917 75.5472 25.7396 75.2322 24.8899C74.9265 24.0655 74.0293 23.9224 73.4519 23.8899C72.8775 24.6201 71.8295 25.5569 71.3565 27.4857C71.2512 27.9593 71.1475 28.2493 71.0407 28.8996" stroke="#1B4332" stroke-width="16.1711" stroke-linecap="round"/>
<path d="M61.4559 21.3425C61.5077 21.2845 61.5596 21.2265 61.6122 21.2836C61.7784 21.4639 61.9776 21.868 62.0585 22.2766C62.4338 24.1717 59.3126 23.6272 58.4225 23.7731C57.4963 23.9248 56.5361 23.7449 55.9602 23.7441C55.1815 23.7429 54.5453 24.7977 53.8641 25.5279C53.0865 26.3615 52.0343 26.7871 51.167 27.1123C50.6479 27.3069 49.8848 27.2581 49.2044 27.5499C48.2631 27.9535 47.1161 30.1756 45.5385 31.5323C44.0494 32.813 41.9308 33.9893 40.1969 34.7266C39.3255 35.0971 37.8957 36.0965 36.1704 37.7046C33.6863 40.02 32.2861 41.2547 31.4471 42.1071C30.6097 42.9578 30.1366 44.1827 29.1954 45.2407C28.5155 46.005 28.4082 48.7381 28.8772 51.1555C29.0645 52.1211 27.1511 52.0351 26.8109 52.8541C26.3871 53.8743 26.1549 54.8471 25.502 55.6986C25.0205 56.3266 24.3746 56.4323 23.9834 56.4341C22.6613 56.44 22.489 55.1459 22.2533 54.8831C22.0425 54.648 22.4843 54.1511 22.9054 53.101C23.8972 50.6279 23.8451 49.7012 24.241 48.9376C24.6852 48.081 24.6339 46.7135 24.7132 45.9498C24.7317 45.772 24.791 45.5992 24.8955 45.5386C25.1263 45.4046 25.4714 45.4797 25.7589 45.217C26.4282 44.6054 26.884 43.4902 27.0702 42.4946C27.2109 41.7421 26.9406 41.2038 26.8353 41.0271C26.7331 40.8558 27.1998 41.4357 27.6429 41.5236C27.9273 41.58 28.3453 41.5535 28.6109 41.4375C29.4517 41.0702 29.2441 39.8575 29.3219 39.4472C29.468 38.6761 31.2805 39.2125 32.7732 38.9472C33.2195 38.9173 33.738 38.9173 34.1607 38.8593C34.5834 38.8013 34.8945 38.6853 35.2151 38.5658" stroke="#1B4332" stroke-width="11.3797" stroke-linecap="round"/>
<path d="M103.724 57.1951C103.829 56.8454 103.724 56.2021 103.828 55.6758C103.931 55.1503 104.404 54.9121 104.431 54.5325C104.302 54.0949 104.144 53.6819 104.039 53.3313C103.986 53.1546 103.935 52.9807 103.567 52.8014" stroke="#1B4332" stroke-width="11.3797" stroke-linecap="round"/>
<path d="M107.181 51.0438C107.181 50.9278 107.181 50.5781 107.155 50.0227C107.132 49.5185 106.298 48.5324 105.38 47.419C104.644 46.5273 107.703 47.1774 108.069 47.2644C108.412 47.346 108.334 48.1686 108.437 48.7881C108.519 49.2829 108.647 47.7064 108.855 47.3558C108.978 47.1487 109.271 47.0051 109.275 46.9735C109.392 46.0301 107.656 47.8206 104.185 48.289C102.648 48.4963 100.855 47.5359 99.1006 46.3364C97.4007 45.1742 97.8632 41.6765 96.9447 40.5033C96.4703 39.8973 95.9744 39.5042 95.7639 39.3865C95.1741 39.0566 97.2252 39.5042 98.56 39.5025C99.3851 39.5014 99.9499 40.2037 100.477 40.9946C100.909 41.6423 98.9081 40.9084 98.4893 41.0833C98.1754 41.2144 98.2246 41.7854 98.1209 42.1079C97.5185 43.9809 93.7778 38.9242 92.5718 37.5745C92.1896 37.1468 92.2536 35.4163 92.3573 33.2493C92.3947 32.4668 92.6684 32.3583 92.853 32.2985C93.0377 32.2388 93.1932 32.2388 93.1178 32.2968C91.4732 33.5614 87.2914 33.4655 86.3093 33.8803C85.5065 34.2193 86.8059 30.7889 86.8326 28.273C86.8507 26.5632 86.5969 25.4479 86.7006 24.7449C86.762 24.3284 87.5365 24.3319 88.0857 24.1263C88.313 24.0411 88.4793 24.2106 88.5854 24.3574C89.0288 24.9709 89.1613 25.7343 89.2422 26.056C89.4151 26.7432 87.9089 26.4391 87.6976 26.4391C87.6497 26.4391 88.1085 26.4391 88.114 26.4101C88.1899 26.0098 87.1233 26.1474 86.6527 25.8846C85.4596 25.2185 86.2292 22.4004 86.0485 21.6675C85.7824 20.5881 84.7145 20.4074 84.0592 19.9382C83.2892 19.3867 82.4109 19.1174 81.5718 18.8828C80.7963 18.666 80.3148 17.9469 79.7892 17.4768C79.1539 16.9086 81.0942 19.4654 83.5493 21.7431C84.8389 22.9394 85.7044 23.8591 85.9409 24.1526C86.3029 24.6019 84.6642 23.1034 83.5132 22.4883C80.7062 20.9881 80.054 19.7677 77.6247 17.3986C75.4294 15.2577 75.285 14.548 75.0234 14.4592C74.8121 15.0137 74.501 19.7747 73.9235 22.8617C73.8174 23.0981 73.7656 23.2721 73.7122 23.4514" stroke="#1B4332" stroke-width="2.39572" stroke-linecap="round"/>
<path d="M55.1707 32.5903C58.8004 29.9225 61.0332 27.1562 61.5313 24.9312C61.7152 24.1099 61.5628 23.8662 61.3797 23.7177C60.9917 23.4029 62.7444 22.4655 66.1981 20.7686C68.2463 19.7623 68.8929 19.0595 69.0233 18.6798C69.095 18.4711 69.2056 18.2422 69.1035 18.1227C69.0013 18.0032 68.6902 18.0032 68.5299 17.8872C68.2361 17.6746 68.4734 17.0102 68.5786 16.6579C68.6239 16.5064 68.1623 17.1227 67.9258 17.4153C67.852 17.5066 68.0523 17.592 68.0546 17.6218C68.1581 18.9334 65.0212 19.4637 64.4453 20.2528C63.4865 21.5666 64.0769 23.5639 62.6996 25.8618C61.5298 27.6957 59.4038 30.8856 57.5826 33.2538C55.7615 35.622 54.3096 37.0719 52.8137 38.5657" stroke="#1B4332" stroke-width="2.39572" stroke-linecap="round"/>
<path d="M27.9869 34.6994C27.9869 34.5834 27.9869 33.8277 27.9609 32.6862C27.935 32.2407 27.8832 32.0667 27.8305 32.093C27.7779 32.1194 27.726 32.3514 27.6726 32.5904" stroke="#1B4332" stroke-width="2.39572" stroke-linecap="round"/>
<path d="M28.4584 38.9174C28.4584 38.8014 28.4584 36.7117 28.4066 33.5491C28.3547 32.4164 28.251 32.2424 28.1198 32.0948C27.9886 31.9472 27.833 31.8312 27.5156 32.0632" stroke="#1B4332" stroke-width="2.39572" stroke-linecap="round"/>
<path d="M66.6408 15.5428C66.9017 15.3688 67.1641 14.8415 67.1648 14.5489C67.1669 13.7892 65.3901 14.2528 63.8698 14.3995C63.5934 14.4262 63.5516 14.6605 63.7323 15.1851C64.7992 18.2825 66.9991 19.8135 67.7659 20.3759C68.9451 21.2407 65.9117 17.3038 65.1504 17.0674C64.1034 16.7423 64.6515 15.1948 64.5463 14.4909C64.5188 14.3076 64.3907 14.1403 64.2595 14.0217C64.1283 13.9031 63.9727 13.8451 63.8407 13.9022C63.7088 13.9593 63.6051 14.1333 63.8368 15.5278C64.0686 16.9224 64.639 19.5323 65.2266 22.2212" stroke="#1B4332" stroke-width="2.39572" stroke-linecap="round"/>
<path d="M123.126 56L134.795 22.2209H144.264L155.933 56H148.87L139.913 27.3901H139.197L130.138 56H123.126ZM129.319 49.0395V44.4844H150.61V49.0395H129.319ZM155.914 56V39.6734V29.2326H161.288L161.135 37.4215H162.056C162.534 35.4084 163.165 33.7535 163.95 32.457C164.768 31.1604 165.809 30.188 167.072 29.5397C168.334 28.8914 169.801 28.5673 171.473 28.5673C174.51 28.5673 176.813 29.642 178.383 31.7916C179.986 33.9412 180.788 37.2679 180.788 41.7718V56H174.288V42.4372C174.288 39.5369 173.845 37.4215 172.957 36.0908C172.104 34.726 170.825 34.0436 169.119 34.0436C167.686 34.0436 166.475 34.5042 165.485 35.4254C164.496 36.3126 163.728 37.5068 163.182 39.0081C162.67 40.4753 162.397 42.096 162.363 43.8702V56H155.914ZM195.023 56.6653C192.703 56.6653 190.69 56.3241 188.984 55.6417C187.312 54.9593 185.913 54.004 184.787 52.7756C183.695 51.5132 182.877 50.046 182.331 48.3741C181.785 46.7022 181.512 44.8938 181.512 42.949C181.512 40.8676 181.785 38.9569 182.331 37.2168C182.911 35.4766 183.764 33.9583 184.89 32.6617C186.016 31.3651 187.397 30.3586 189.035 29.642C190.707 28.9255 192.618 28.5673 194.767 28.5673C196.917 28.5673 198.777 28.9255 200.346 29.642C201.95 30.3586 203.246 31.3651 204.236 32.6617C205.225 33.9241 205.891 35.4084 206.232 37.1144L200.193 39.0081C200.124 37.9845 199.851 37.0803 199.374 36.2955C198.896 35.4766 198.248 34.8454 197.429 34.4018C196.61 33.9583 195.638 33.7365 194.512 33.7365C193.42 33.7365 192.464 33.9583 191.645 34.4018C190.861 34.8113 190.195 35.4084 189.649 36.1931C189.138 36.9779 188.728 37.9333 188.421 39.0593C188.148 40.1511 188.012 41.3794 188.012 42.7443C188.012 44.6209 188.268 46.2245 188.779 47.5552C189.291 48.8859 190.076 49.9266 191.134 50.6772C192.191 51.3938 193.505 51.752 195.075 51.752C196.473 51.752 197.599 51.4961 198.452 50.9843C199.34 50.4384 200.005 49.7389 200.448 48.8859C200.926 48.0329 201.216 47.0946 201.319 46.071L207.051 47.3505C206.846 48.7494 206.454 50.0119 205.874 51.1379C205.294 52.2638 204.492 53.2533 203.468 54.1063C202.479 54.9252 201.284 55.5564 199.886 56C198.487 56.4436 196.866 56.6653 195.023 56.6653ZM207.029 56V29.2326H213.478V56H207.029ZM210.253 25.0358C208.957 25.0358 207.95 24.7628 207.234 24.2169C206.551 23.6369 206.21 22.818 206.21 21.7603C206.21 20.7025 206.551 19.9007 207.234 19.3548C207.95 18.7747 208.957 18.4847 210.253 18.4847C211.618 18.4847 212.642 18.7577 213.324 19.3036C214.006 19.8495 214.348 20.6684 214.348 21.7603C214.348 22.818 213.989 23.6369 213.273 24.2169C212.59 24.7628 211.584 25.0358 210.253 25.0358ZM228.196 56.6653C226.046 56.6653 224.119 56.3583 222.413 55.7441C220.741 55.1299 219.325 54.2428 218.165 53.0827C217.004 51.8885 216.117 50.4554 215.503 48.7836C214.889 47.1117 214.582 45.218 214.582 43.1025C214.582 40.9871 214.872 39.0422 215.452 37.2679C216.066 35.4937 216.936 33.9583 218.062 32.6617C219.188 31.3651 220.553 30.3586 222.157 29.642C223.794 28.9255 225.654 28.5673 227.735 28.5673C229.68 28.5673 231.42 28.8914 232.956 29.5397C234.491 30.188 235.788 31.1604 236.845 32.457C237.903 33.7194 238.688 35.306 239.2 37.2168C239.712 39.0934 239.882 41.2771 239.712 43.7679L218.779 43.9214V40.1852L235.975 40.0317L233.723 42.1301C233.928 40.1852 233.775 38.5986 233.263 37.3703C232.751 36.1078 232.017 35.1866 231.062 34.6066C230.107 33.9924 229.015 33.6853 227.786 33.6853C226.388 33.6853 225.159 34.0606 224.101 34.8113C223.044 35.5278 222.225 36.5855 221.645 37.9845C221.099 39.3493 220.826 41.0212 220.826 43.0002C220.826 45.9686 221.474 48.1864 222.771 49.6536C224.101 51.1208 225.91 51.8544 228.196 51.8544C229.22 51.8544 230.073 51.735 230.755 51.4961C231.471 51.2232 232.069 50.882 232.546 50.4725C233.024 50.0289 233.399 49.5342 233.672 48.9883C233.979 48.4423 234.218 47.8623 234.389 47.2481L240.019 48.5276C239.746 49.7901 239.302 50.9161 238.688 51.9056C238.074 52.8951 237.272 53.7481 236.282 54.4646C235.327 55.1811 234.184 55.727 232.853 56.1024C231.523 56.4777 229.97 56.6653 228.196 56.6653ZM241 56V39.6734V29.2326H246.374L246.22 37.4215H247.141C247.619 35.4084 248.25 33.7535 249.035 32.457C249.854 31.1604 250.895 30.188 252.157 29.5397C253.42 28.8914 254.887 28.5673 256.559 28.5673C259.595 28.5673 261.899 29.642 263.468 31.7916C265.072 33.9412 265.874 37.2679 265.874 41.7718V56H259.374V42.4372C259.374 39.5369 258.93 37.4215 258.043 36.0908C257.19 34.726 255.91 34.0436 254.204 34.0436C252.771 34.0436 251.56 34.5042 250.571 35.4254C249.581 36.3126 248.813 37.5068 248.267 39.0081C247.756 40.4753 247.483 42.096 247.449 43.8702V56H241ZM277.398 56.6142C274.566 56.6142 272.484 55.8635 271.154 54.3622C269.823 52.8268 269.158 50.4554 269.158 47.2481V34.4018H265.217L265.319 29.2838H267.929C268.919 29.2838 269.652 29.1302 270.13 28.8232C270.608 28.5161 270.898 27.9702 271 27.1854L271.614 23.2957H275.35V29.2326H282.413V34.6066H275.35V46.9922C275.35 48.2547 275.64 49.1759 276.22 49.756C276.835 50.336 277.739 50.626 278.933 50.626C279.581 50.626 280.212 50.5578 280.827 50.4213C281.475 50.2507 282.072 49.9778 282.618 49.6024V55.7441C281.56 56.0853 280.588 56.3071 279.701 56.4094C278.848 56.5459 278.08 56.6142 277.398 56.6142Z" fill="#1B4332"/>
<path d="M309.323 56.6653C306.866 56.6653 304.682 56.273 302.772 55.4882C300.861 54.7034 299.223 53.5775 297.858 52.1103C296.527 50.609 295.504 48.7836 294.787 46.634C294.071 44.4844 293.713 42.0277 293.713 39.264C293.713 35.2719 294.395 31.9793 295.76 29.3861C297.125 26.7589 299.001 24.797 301.39 23.5004C303.778 22.2038 306.491 21.5555 309.527 21.5555C311.882 21.5555 314.014 21.9479 315.925 22.7327C317.836 23.4833 319.456 24.6093 320.787 26.1106C322.152 27.5778 323.21 29.4203 323.96 31.6381C324.711 33.8218 325.086 36.3296 325.086 39.1616C325.086 41.9936 324.711 44.5014 323.96 46.6852C323.244 48.8347 322.203 50.6602 320.838 52.1615C319.473 53.6286 317.819 54.7546 315.874 55.5394C313.963 56.29 311.779 56.6653 309.323 56.6653ZM309.476 51.4449C311.421 51.4449 313.042 50.9843 314.338 50.0631C315.669 49.1077 316.676 47.7429 317.358 45.9686C318.074 44.1944 318.433 42.0277 318.433 39.4687C318.433 36.8414 318.074 34.5895 317.358 32.7129C316.641 30.8363 315.601 29.4203 314.236 28.4649C312.905 27.4754 311.267 26.9807 309.323 26.9807C307.48 26.9807 305.876 27.4583 304.512 28.4137C303.181 29.335 302.157 30.7168 301.441 32.5593C300.724 34.3677 300.366 36.5855 300.366 39.2128C300.366 41.1918 300.571 42.949 300.98 44.4844C301.39 45.9857 301.97 47.2481 302.72 48.2717C303.505 49.2954 304.46 50.0801 305.586 50.626C306.747 51.172 308.043 51.4449 309.476 51.4449ZM333.006 56.6653C331.539 56.6653 330.226 56.3924 329.065 55.8465C327.905 55.2664 326.984 54.4134 326.302 53.2874C325.653 52.1615 325.329 50.7625 325.329 49.0906C325.329 47.6917 325.585 46.4975 326.097 45.508C326.643 44.5185 327.445 43.7167 328.503 43.1025C329.56 42.4542 330.874 41.9254 332.443 41.5159C334.013 41.0724 335.855 40.697 337.971 40.39C339.131 40.2193 340.069 40.0487 340.786 39.8781C341.536 39.7075 342.082 39.4516 342.424 39.1104C342.765 38.7351 342.935 38.1892 342.935 37.4727C342.935 36.4149 342.56 35.5107 341.809 34.7601C341.093 33.9753 339.916 33.5829 338.278 33.5829C337.288 33.5829 336.333 33.7535 335.412 34.0947C334.525 34.436 333.757 34.9819 333.109 35.7325C332.46 36.4491 332.017 37.4044 331.778 38.5986L325.995 36.8073C326.37 35.4425 326.916 34.2654 327.632 33.2759C328.349 32.2523 329.236 31.3822 330.294 30.6657C331.352 29.9491 332.563 29.4203 333.928 29.0791C335.292 28.7379 336.794 28.5673 338.432 28.5673C340.922 28.5673 342.97 28.9767 344.573 29.7956C346.177 30.5804 347.371 31.8257 348.156 33.5318C348.941 35.2037 349.333 37.3703 349.333 40.0317V45.0474C349.333 46.2075 349.35 47.4187 349.384 48.6812C349.452 49.9095 349.521 51.1549 349.589 52.4174C349.691 53.6457 349.811 54.8399 349.947 56H344.164C344.027 55.0446 343.908 54.021 343.805 52.9292C343.703 51.8373 343.618 50.7284 343.55 49.6024H342.731C342.253 50.899 341.571 52.0932 340.683 53.1851C339.796 54.2428 338.704 55.0958 337.408 55.7441C336.145 56.3583 334.678 56.6653 333.006 56.6653ZM335.565 51.9056C336.248 51.9056 336.93 51.7861 337.613 51.5473C338.329 51.3085 339.029 50.9502 339.711 50.4725C340.393 49.9948 341.025 49.4148 341.605 48.7324C342.185 48.0158 342.68 47.1799 343.089 46.2245L342.987 41.6695L344.215 41.8742C343.635 42.3519 342.918 42.7272 342.065 43.0002C341.212 43.2731 340.308 43.4778 339.353 43.6143C338.432 43.7508 337.493 43.9214 336.538 44.1261C335.617 44.2967 334.781 44.5356 334.03 44.8427C333.279 45.1156 332.682 45.5251 332.239 46.071C331.795 46.5828 331.573 47.2993 331.573 48.2206C331.573 49.3807 331.949 50.2848 332.699 50.9331C333.45 51.5814 334.405 51.9056 335.565 51.9056ZM351.696 56V19.6107H358.042V40.0317C359.203 39.3152 360.311 38.5304 361.369 37.6774C362.427 36.7903 363.399 35.869 364.286 34.9136C365.174 33.9583 365.958 33.0029 366.641 32.0475C367.323 31.058 367.886 30.1197 368.33 29.2326H375.751C375.205 30.5633 374.488 31.8769 373.601 33.1735C372.714 34.4701 371.674 35.6643 370.479 36.7561C369.319 37.848 368.006 38.8034 366.538 39.6222C365.071 40.407 363.502 40.9529 361.83 41.26V41.9765C363.945 41.6695 365.72 41.7718 367.153 42.2836C368.586 42.7954 369.797 43.5631 370.786 44.5868C371.776 45.6104 372.595 46.8046 373.243 48.1694C373.925 49.5001 374.557 50.8649 375.137 52.2638L376.467 56H369.353L368.534 53.5433C367.886 51.8373 367.204 50.336 366.487 49.0395C365.805 47.7088 364.935 46.6852 363.877 45.9686C362.853 45.218 361.523 44.8427 359.885 44.8427H358.042V56H351.696Z" fill="#1B4332"/>
<path d="M135.512 100L124.303 65.0949H127.067L136.996 96.7756H136.023L145.901 65.0949H148.102L158.031 96.7756H157.007L166.988 65.0949H169.751L158.543 100H156.444L146.567 68.3705H147.437L137.61 100H135.512ZM180.011 100.512C177.691 100.512 175.593 99.9659 173.716 98.874C171.873 97.7481 170.406 96.2468 169.314 94.3701C168.223 92.4594 167.677 90.3439 167.677 88.0238C167.677 85.7036 168.223 83.6222 169.314 81.7797C170.406 79.9031 171.873 78.4189 173.716 77.327C175.593 76.2352 177.691 75.6893 180.011 75.6893C182.297 75.6893 184.361 76.2352 186.204 77.327C188.081 78.4189 189.565 79.9031 190.657 81.7797C191.748 83.6222 192.294 85.7036 192.294 88.0238C192.294 90.3781 191.748 92.4935 190.657 94.3701C189.565 96.2468 188.081 97.7481 186.204 98.874C184.361 99.9659 182.297 100.512 180.011 100.512ZM180.011 98.0551C181.819 98.0551 183.44 97.6116 184.873 96.7244C186.34 95.8373 187.483 94.6431 188.302 93.1418C189.155 91.6064 189.582 89.8833 189.582 87.9726C189.582 86.096 189.155 84.4241 188.302 82.9569C187.483 81.4897 186.34 80.3296 184.873 79.4766C183.44 78.5895 181.819 78.1459 180.011 78.1459C178.169 78.1459 176.514 78.5895 175.047 79.4766C173.614 80.3296 172.47 81.4897 171.617 82.9569C170.764 84.4241 170.338 86.113 170.338 88.0238C170.338 89.9345 170.764 91.6405 171.617 93.1418C172.47 94.6431 173.614 95.8373 175.047 96.7244C176.514 97.6116 178.169 98.0551 180.011 98.0551ZM206.691 100.512C204.371 100.512 202.272 99.9659 200.396 98.874C198.553 97.7481 197.086 96.2468 195.994 94.3701C194.902 92.4594 194.356 90.3439 194.356 88.0238C194.356 85.7036 194.902 83.6222 195.994 81.7797C197.086 79.9031 198.553 78.4189 200.396 77.327C202.272 76.2352 204.371 75.6893 206.691 75.6893C208.977 75.6893 211.041 76.2352 212.884 77.327C214.76 78.4189 216.245 79.9031 217.336 81.7797C218.428 83.6222 218.974 85.7036 218.974 88.0238C218.974 90.3781 218.428 92.4935 217.336 94.3701C216.245 96.2468 214.76 97.7481 212.884 98.874C211.041 99.9659 208.977 100.512 206.691 100.512ZM206.691 98.0551C208.499 98.0551 210.12 97.6116 211.553 96.7244C213.02 95.8373 214.163 94.6431 214.982 93.1418C215.835 91.6064 216.262 89.8833 216.262 87.9726C216.262 86.096 215.835 84.4241 214.982 82.9569C214.163 81.4897 213.02 80.3296 211.553 79.4766C210.12 78.5895 208.499 78.1459 206.691 78.1459C204.848 78.1459 203.194 78.5895 201.726 79.4766C200.293 80.3296 199.15 81.4897 198.297 82.9569C197.444 84.4241 197.018 86.113 197.018 88.0238C197.018 89.9345 197.444 91.6405 198.297 93.1418C199.15 94.6431 200.293 95.8373 201.726 96.7244C203.194 97.6116 204.848 98.0551 206.691 98.0551ZM232.859 100.512C230.607 100.512 228.594 99.9659 226.82 98.874C225.045 97.7822 223.646 96.315 222.623 94.4725C221.599 92.5959 221.087 90.4804 221.087 88.1261C221.087 85.7718 221.599 83.6564 222.623 81.7797C223.646 79.9031 225.045 78.4189 226.82 77.327C228.594 76.2352 230.607 75.6893 232.859 75.6893C234.599 75.6893 236.203 76.0305 237.67 76.7129C239.171 77.3953 240.434 78.3848 241.457 79.6813C242.481 80.9438 243.129 82.4451 243.402 84.1852V91.9647C243.095 93.6707 242.447 95.172 241.457 96.4685C240.468 97.731 239.222 98.7205 237.721 99.437C236.254 100.154 234.633 100.512 232.859 100.512ZM233.32 98.0551C235.128 98.0551 236.715 97.6286 238.079 96.7756C239.444 95.9226 240.502 94.7625 241.253 93.2954C242.037 91.7941 242.43 90.071 242.43 88.1261C242.43 86.1471 242.037 84.4241 241.253 82.9569C240.468 81.4556 239.376 80.2785 237.977 79.4254C236.612 78.5724 235.009 78.1459 233.166 78.1459C231.358 78.1459 229.737 78.5724 228.304 79.4254C226.905 80.2785 225.796 81.4556 224.977 82.9569C224.158 84.4241 223.749 86.1301 223.749 88.0749C223.749 90.0198 224.158 91.7429 224.977 93.2442C225.796 94.7455 226.922 95.9226 228.355 96.7756C229.788 97.6286 231.443 98.0551 233.32 98.0551ZM244.938 100H242.327V93.6024L242.941 87.7679L242.327 81.9845V64.0713H244.938V100ZM256.602 100L247.595 76.2011H250.307L257.933 97.2363H256.807L264.433 76.2011H265.968L273.594 97.2363H272.468L280.094 76.2011H282.807L273.85 100H272.264L264.535 78.9136H265.917L258.138 100H256.602ZM295.377 100.512C293.057 100.512 290.959 99.9659 289.082 98.874C287.239 97.7481 285.772 96.2468 284.68 94.3701C283.589 92.4594 283.043 90.3439 283.043 88.0238C283.043 85.7036 283.589 83.6222 284.68 81.7797C285.772 79.9031 287.239 78.4189 289.082 77.327C290.959 76.2352 293.057 75.6893 295.377 75.6893C297.663 75.6893 299.727 76.2352 301.57 77.327C303.447 78.4189 304.931 79.9031 306.023 81.7797C307.114 83.6222 307.66 85.7036 307.66 88.0238C307.66 90.3781 307.114 92.4935 306.023 94.3701C304.931 96.2468 303.447 97.7481 301.57 98.874C299.727 99.9659 297.663 100.512 295.377 100.512ZM295.377 98.0551C297.185 98.0551 298.806 97.6116 300.239 96.7244C301.706 95.8373 302.849 94.6431 303.668 93.1418C304.521 91.6064 304.948 89.8833 304.948 87.9726C304.948 86.096 304.521 84.4241 303.668 82.9569C302.849 81.4897 301.706 80.3296 300.239 79.4766C298.806 78.5895 297.185 78.1459 295.377 78.1459C293.535 78.1459 291.88 78.5895 290.413 79.4766C288.98 80.3296 287.837 81.4897 286.984 82.9569C286.13 84.4241 285.704 86.113 285.704 88.0238C285.704 89.9345 286.13 91.6405 286.984 93.1418C287.837 94.6431 288.98 95.8373 290.413 96.7244C291.88 97.6116 293.535 98.0551 295.377 98.0551ZM311.258 100V76.2011H313.868V100H311.258ZM313.868 85.7718L312.589 85.3112C312.589 82.2745 313.356 79.9202 314.892 78.2483C316.427 76.5423 318.44 75.6893 320.931 75.6893C322.091 75.6893 323.166 75.894 324.155 76.3034C325.179 76.7129 326.117 77.3782 326.97 78.2995L325.23 80.142C324.582 79.4254 323.882 78.9136 323.132 78.6066C322.381 78.2995 321.494 78.1459 320.47 78.1459C318.525 78.1459 316.939 78.8113 315.711 80.142C314.482 81.4385 313.868 83.3152 313.868 85.7718ZM344.199 100L330.943 87.7679L343.943 76.2011H347.27L333.451 88.4332L333.502 87.0002L347.73 100H344.199ZM328.691 100V64.0713H331.301V100H328.691ZM355.888 100.512C354.591 100.512 353.363 100.341 352.203 100C351.077 99.6247 350.036 99.1129 349.081 98.4646C348.159 97.8163 347.34 97.0657 346.624 96.2126L348.364 94.4725C349.319 95.735 350.428 96.6733 351.691 97.2874C352.987 97.8675 354.403 98.1575 355.939 98.1575C357.713 98.1575 359.112 97.7992 360.136 97.0827C361.159 96.3662 361.671 95.3596 361.671 94.0631C361.671 92.903 361.347 91.9988 360.699 91.3505C360.05 90.6681 359.197 90.1392 358.14 89.7639C357.116 89.3886 356.024 89.0303 354.864 88.6891C353.738 88.3479 352.646 87.9385 351.588 87.4608C350.565 86.9831 349.729 86.3177 349.081 85.4647C348.432 84.6117 348.108 83.4687 348.108 82.0356C348.108 80.7732 348.432 79.6643 349.081 78.7089C349.729 77.7535 350.633 77.02 351.793 76.5082C352.987 75.9622 354.386 75.6893 355.99 75.6893C357.764 75.6893 359.351 75.9963 360.75 76.6105C362.183 77.2247 363.326 78.1289 364.179 79.3231L362.49 81.0632C361.808 80.1078 360.886 79.3743 359.726 78.8625C358.566 78.3165 357.27 78.0436 355.836 78.0436C354.13 78.0436 352.834 78.4018 351.947 79.1184C351.06 79.8349 350.616 80.7561 350.616 81.8821C350.616 82.9398 350.94 83.7758 351.588 84.39C352.237 85.0041 353.073 85.4818 354.096 85.823C355.154 86.1642 356.246 86.5054 357.372 86.8466C358.532 87.1537 359.624 87.5631 360.647 88.0749C361.705 88.5868 362.558 89.2862 363.206 90.1733C363.855 91.0605 364.179 92.2717 364.179 93.8072C364.179 95.8544 363.428 97.4922 361.927 98.7205C360.426 99.9147 358.413 100.512 355.888 100.512Z" fill="#1B4332"/>
</svg>
